<?xml version="1.0" standalone="no"?>
<!DOCTYPE svg PUBLIC "-//W3C//DTD SVG 20010904//EN"
 "http://www.w3.org/TR/2001/REC-SVG-20010904/DTD/svg10.dtd">
<svg version="1.0" xmlns="http://www.w3.org/2000/svg"
 width="600.000000pt" height="400.000000pt" viewBox="0 0 600.000000 400.000000"
 preserveAspectRatio="xMidYMid meet">

<g transform="translate(0.000000,400.000000) scale(0.100000,-0.100000)"
fill="#000000" stroke="none">
<path d="M3808 3503 c-39 -42 -58 -97 -58 -172 0 -64 -1 -67 -31 -85 -22 -13
-29 -24 -26 -37 3 -10 2 -21 -2 -24 -15 -8 0 -155 19 -200 10 -24 16 -46 12
-49 -4 -2 -130 -8 -279 -12 l-272 -7 -5 -26 c-3 -14 -8 -65 -11 -113 -7 -84
-16 -104 -39 -80 -4 4 -11 7 -14 8 -108 10 -220 17 -232 15 -8 -2 -51 -20 -95
-41 -44 -21 -83 -35 -87 -31 -4 3 -12 98 -17 210 -5 111 -12 205 -15 208 -2 3
-69 -9 -148 -26 -165 -37 -142 -19 -318 -236 -58 -71 -122 -147 -142 -169
l-38 -41 -52 55 c-28 30 -74 79 -101 108 -32 34 -91 77 -170 123 l-120 72 -81
-16 c-45 -9 -141 -26 -213 -39 -132 -23 -133 -23 -133 -50 0 -15 4 -29 9 -32
5 -3 11 -23 14 -43 17 -133 106 -533 146 -658 160 -496 172 -535 154 -535 -37
-1 -34 -19 37 -231 39 -118 73 -215 74 -217 2 -1 83 9 182 23 226 33 248 36
252 40 7 7 -16 100 -134 545 -14 52 -32 120 -39 150 -7 30 -32 125 -55 210
-48 180 -47 178 -37 182 4 2 27 -53 51 -122 59 -173 79 -215 133 -277 l46 -55
56 114 c66 132 159 288 174 288 6 0 7 -16 2 -42 -4 -24 -13 -88 -21 -143 -8
-55 -20 -134 -27 -175 -14 -91 -14 -162 1 -345 16 -189 19 -215 26 -223 6 -5
437 46 444 53 4 4 -27 333 -35 364 -8 31 3 27 97 -34 63 -43 73 -46 102 -37
82 25 359 84 365 78 3 -3 10 -56 14 -118 5 -61 12 -115 16 -118 6 -6 198 -55
333 -85 8 -2 80 -19 160 -39 80 -19 147 -32 150 -30 8 9 26 192 29 294 1 52 4
96 7 99 21 21 95 -123 140 -272 9 -32 21 -60 25 -63 5 -3 32 6 61 19 29 13 76
34 103 46 113 50 210 93 284 127 l64 29 74 150 c68 138 74 154 68 195 -9 68
-45 302 -50 325 -3 13 -59 54 -165 119 -88 55 -160 102 -160 106 0 3 17 12 38
19 74 27 202 119 202 147 0 6 -9 33 -19 60 -11 27 -37 96 -57 154 -21 58 -42
110 -48 117 -8 9 -34 6 -106 -13 -52 -13 -100 -24 -106 -24 -6 0 -21 34 -33
76 -53 181 -98 253 -172 275 -21 7 -39 15 -39 19 0 3 16 45 35 93 19 48 35 89
35 92 0 3 -46 5 -103 5 -100 0 -104 -1 -129 -27z m84 -96 c-30 -32 -32 -135
-3 -161 11 -10 25 -15 30 -11 6 3 11 2 11 -4 0 -7 8 -7 26 -1 38 15 62 -4 94
-73 38 -85 56 -162 43 -179 -6 -7 -14 -33 -17 -58 -17 -113 -45 -178 -99 -229
-38 -35 -53 -22 -67 56 -6 37 -20 79 -29 93 -9 14 -25 43 -35 65 -10 22 -29
63 -42 90 -12 28 -26 66 -29 85 -7 39 9 95 25 85 6 -3 14 5 20 19 5 14 14 26
20 26 6 0 10 37 10 94 0 112 4 126 38 126 l25 0 -21 -23z m-13 -993 l1 -61
110 -67 c61 -37 121 -69 134 -70 48 -6 156 -119 156 -164 0 -5 -42 -30 -94
-55 -80 -38 -94 -49 -89 -65 6 -24 2 -25 -132 -48 -55 -9 -102 -18 -104 -20
-7 -6 -41 28 -41 41 0 25 -21 33 -49 19 -44 -22 -149 -45 -189 -42 l-37 3 -3
59 c-3 57 -2 58 20 53 13 -4 49 -9 79 -13 l55 -6 18 183 c9 101 18 195 19 209
l2 25 -93 -4 c-94 -3 -94 -3 -90 20 3 24 4 24 156 27 138 2 153 4 151 20 -1 9
0 37 1 62 l3 45 8 -45 c4 -25 8 -72 8 -106z m-2139 -95 c0 -5 -4 -9 -10 -9 -5
0 -10 7 -10 16 0 8 5 12 10 9 6 -3 10 -10 10 -16z m1275 -59 c21 0 26 -28 9
-63 -13 -26 -113 -112 -147 -126 -12 -4 -87 69 -87 86 0 7 -5 13 -11 13 -8 0
-8 4 0 13 8 10 7 17 -2 27 -10 10 -9 11 2 5 7 -4 16 -3 20 2 9 13 130 73 147
73 8 0 14 5 14 11 0 7 9 0 21 -15 11 -14 26 -26 34 -26z"/>
<path d="M2320 735 l0 -185 35 0 35 0 0 88 c0 84 1 89 25 102 43 23 55 1 55
-102 l0 -89 36 3 37 3 -2 110 c-3 136 -12 155 -76 155 -24 0 -47 -4 -50 -10
-15 -25 -25 -5 -25 50 l0 60 -35 0 -35 0 0 -185z"/>
<path d="M4580 775 c0 -152 12 -209 45 -221 10 -4 26 3 40 16 22 21 23 25 10
44 -12 16 -15 54 -15 163 l0 143 -40 0 -40 0 0 -145z"/>
<path d="M4750 761 c0 -145 2 -161 21 -185 24 -31 36 -32 67 -7 27 23 27 26 2
51 -18 18 -20 33 -20 160 l0 140 -35 0 -35 0 0 -159z"/>
<path d="M4430 875 c0 -33 2 -35 35 -35 33 0 35 2 35 35 0 33 -2 35 -35 35
-33 0 -35 -2 -35 -35z"/>
<path d="M2151 891 c-9 -6 -12 -20 -9 -40 3 -19 -1 -36 -9 -42 -16 -14 -17
-31 -1 -47 8 -8 12 -35 10 -75 -4 -95 44 -162 88 -122 24 22 25 38 5 55 -10 9
-15 32 -15 76 0 50 3 64 15 64 9 0 15 9 15 25 0 15 -6 25 -14 25 -10 0 -16 14
-18 43 -3 37 -6 42 -28 45 -14 1 -31 -2 -39 -7z"/>
<path d="M3605 880 c-3 -11 -3 -29 0 -40 4 -13 1 -22 -9 -26 -19 -7 -22 -50
-4 -56 7 -3 12 -31 13 -79 2 -111 43 -161 90 -109 17 19 17 23 -10 70 -22 38
-19 107 5 120 11 6 20 19 20 29 0 10 -9 21 -20 24 -16 4 -20 14 -20 46 0 39
-2 41 -29 41 -21 0 -32 -6 -36 -20z"/>
<path d="M1320 823 c-36 -13 -60 -47 -60 -83 0 -45 25 -71 78 -79 28 -5 37
-11 37 -26 0 -16 -8 -21 -37 -23 -20 -2 -47 2 -58 8 -20 11 -21 9 -18 -27 l3
-38 54 -3 c30 -2 65 -1 78 3 26 6 53 52 53 90 0 38 -42 75 -83 75 -21 0 -37 6
-40 15 -9 22 9 28 59 20 44 -6 44 -6 44 25 0 24 -6 33 -26 40 -27 11 -60 12
-84 3z"/>
<path d="M1585 816 c-45 -20 -67 -50 -72 -100 -7 -62 3 -109 32 -140 21 -22
32 -26 82 -26 68 0 99 17 119 66 28 67 9 157 -39 189 -35 23 -87 28 -122 11z
m84 -70 c18 -21 24 -77 12 -108 -14 -36 -62 -39 -85 -6 -21 29 -20 87 1 110
19 21 56 24 72 4z"/>
<path d="M3125 823 c-48 -12 -95 -82 -95 -143 0 -38 34 -106 59 -120 21 -11
120 -14 145 -4 10 4 16 18 16 41 0 30 -3 34 -17 27 -42 -18 -88 -16 -107 5
-24 27 -15 37 31 35 21 -2 57 0 81 3 36 5 42 9 42 29 0 86 -74 146 -155 127z
m70 -77 c32 -23 12 -46 -40 -46 -38 0 -45 3 -45 20 0 35 51 51 85 26z"/>
<path d="M3383 811 c-36 -23 -47 -49 -38 -91 8 -35 39 -60 76 -60 34 0 59 -27
38 -41 -14 -10 -70 -7 -102 6 -16 7 -18 3 -15 -31 l3 -39 71 -3 c68 -3 73 -1
93 24 28 35 28 94 1 119 -11 10 -37 21 -58 24 -23 4 -37 12 -37 21 0 12 11 14
48 13 46 -3 47 -2 47 27 0 50 -68 66 -127 31z"/>
<path d="M2627 804 c-32 -17 -33 -7 22 -149 36 -93 41 -100 68 -103 27 -3 32
1 46 40 10 24 17 51 17 61 0 37 21 14 37 -43 17 -57 20 -60 50 -60 31 0 32 2
77 117 l46 118 -23 17 c-12 10 -26 16 -32 14 -5 -1 -20 -31 -33 -67 -29 -80
-38 -90 -47 -47 -19 93 -27 108 -57 108 -30 0 -36 -9 -57 -87 -7 -24 -16 -43
-20 -43 -5 0 -19 32 -32 70 -12 39 -25 70 -28 70 -3 -1 -19 -8 -34 -16z"/>
<path d="M3931 804 c-47 -33 -65 -122 -37 -189 20 -48 57 -69 106 -61 22 3 40
3 40 -2 0 -15 -24 -32 -45 -32 -24 0 -45 -18 -45 -37 0 -9 15 -13 45 -13 35 0
52 6 77 29 l33 29 3 132 c4 152 2 166 -29 150 -15 -9 -24 -9 -32 -1 -17 17
-89 13 -116 -5z m97 -56 c7 -7 12 -36 12 -65 0 -43 -4 -54 -21 -64 -32 -17
-64 19 -64 72 0 55 42 88 73 57z"/>
<path d="M4218 813 l-28 -4 0 -130 0 -129 40 0 39 0 3 93 3 92 48 3 48 3 -3
37 c-3 32 -7 37 -30 40 -15 2 -36 -2 -47 -7 -13 -7 -22 -8 -26 -1 -3 5 -9 9
-13 9 -4 -1 -19 -4 -34 -6z"/>
<path d="M1830 709 c0 -95 9 -135 34 -151 16 -11 74 -10 96 2 13 7 21 7 25 0
3 -5 22 -10 41 -10 l34 0 0 130 0 130 -35 0 -35 0 0 -83 c0 -87 -8 -107 -45
-107 -35 0 -43 18 -38 80 8 88 0 110 -42 110 l-35 0 0 -101z"/>
<path d="M4430 680 l0 -130 35 0 35 0 0 130 0 130 -35 0 -35 0 0 -130z"/>
</g>
</svg>
